<?xml version="1.0" encoding="UTF-8"?>
<svg width="600" height="245" version="1.1" xmlns="http://www.w3.org/2000/svg">
 <path d="m10 10.482h417.55l50.418 69.522 50.418-69.522h61.612l-81.223 112.01 81.223 112.03h-61.612l-50.418-69.522-50.418 69.522h-417.55z" fill="#00539f"/>
 <path d="m59.433 189.96v-134.8h20.24c40.783 0 59.361 20.808 59.361 66.58 0 47.984-17.198 68.223-58.814 68.223zm185.28-42.995 25.512-90.147 25.797 90.147zm-223.29 76.295h60.192c63.803 0 95.966-34.132 95.966-101.52 0-66.032-32.165-100.14-94.588-100.14h-61.571zm424.6-100.85-73.151 100.89 50.396 0.0456 48.51-66.945 24.66-33.99-24.66-33.969-48.51-66.845h-50.396zm-259.29 100.85h36.059l12.756-44.11h69.622l12.493 44.11h38.006l-60.761-201.67h-47.415z" fill="#fff"/>
</svg>
